<svg width="16" height="9" viewBox="0 0 16 9" fill="none" xmlns="http://www.w3.org/2000/svg">
<path fill-rule="evenodd" clip-rule="evenodd" d="M7.27395 8.19448L0.174267 1.02472C-0.0586169 0.79019 -0.057825 0.409271 0.175059 0.175532C0.408069 -0.0582179 0.786411 -0.058218 1.01861 0.176313L7.69692 6.91872L14.3744 0.176313C14.6066 -0.058218 14.9842 -0.0589988 15.218 0.175532C15.3353 0.292792 15.3931 0.445483 15.3931 0.600517C15.3931 0.753989 15.3353 0.907461 15.2188 1.02472L8.11909 8.19448C8.00672 8.30781 7.85474 8.37076 7.69692 8.37076C7.5383 8.37076 7.38633 8.30702 7.27395 8.19448Z" fill="black"/>
<path fill-rule="evenodd" clip-rule="evenodd" d="M7.27395 8.19448L0.174267 1.02472C-0.0586169 0.79019 -0.057825 0.409271 0.175059 0.175532C0.408069 -0.0582179 0.786411 -0.058218 1.01861 0.176313L7.69692 6.91872L14.3744 0.176313C14.6066 -0.058218 14.9842 -0.0589988 15.218 0.175532C15.3353 0.292792 15.3931 0.445483 15.3931 0.600517C15.3931 0.753989 15.3353 0.907461 15.2188 1.02472L8.11909 8.19448C8.00672 8.30781 7.85474 8.37076 7.69692 8.37076C7.5383 8.37076 7.38633 8.30702 7.27395 8.19448Z" fill="#111204"/>
</svg>
