<svg width="18" height="18" viewBox="0 0 18 18" fill="none" xmlns="http://www.w3.org/2000/svg">
<path d="M8.74257 0C3.93416 0 0 3.93416 0 8.74257C0 13.551 3.93416 17.4851 8.74257 17.4851C13.551 17.4851 17.4851 13.551 17.4851 8.74257C17.4851 3.93416 13.551 0 8.74257 0ZM11.9773 9.35455L9.35455 11.9773C9.00485 12.327 8.4803 12.327 8.13059 11.9773C7.78089 11.6276 7.78089 11.1031 8.13059 10.7534L9.26713 9.61683H6.1198C5.59525 9.61683 5.24554 9.26713 5.24554 8.74257C5.24554 8.21802 5.59525 7.86831 6.1198 7.86831H9.26713L8.13059 6.73178C7.78089 6.38208 7.78089 5.85752 8.13059 5.50782C8.4803 5.15812 9.00485 5.15812 9.35455 5.50782L11.9773 8.13059C12.327 8.4803 12.327 9.00485 11.9773 9.35455Z" fill="#111204"/>
</svg>
