<svg width="331" height="15" viewBox="0 0 331 15" fill="none" xmlns="http://www.w3.org/2000/svg">
<path d="M5.33334 12.6971C8.27886 12.6971 10.6667 10.3093 10.6667 7.36377C10.6667 4.41825 8.27886 2.03044 5.33334 2.03044C2.38782 2.03044 1.00136e-05 4.41825 1.00136e-05 7.36377C1.00136e-05 10.3093 2.38782 12.6971 5.33334 12.6971ZM330.04 8.07088C330.431 7.68035 330.431 7.04719 330.04 6.65666L323.676 0.292702C323.286 -0.0978227 322.653 -0.0978227 322.262 0.292702C321.872 0.683226 321.872 1.31639 322.262 1.70692L327.919 7.36377L322.262 13.0206C321.872 13.4111 321.872 14.0443 322.262 14.4348C322.653 14.8254 323.286 14.8254 323.676 14.4348L330.04 8.07088ZM5.33334 8.36377L329.333 8.36377V6.36377L5.33334 6.36377V8.36377Z" fill="#B9FD50"/>
</svg>
