<svg width="15" height="15" viewBox="0 0 15 15" fill="none" xmlns="http://www.w3.org/2000/svg">
<path d="M6.05437 0.82848C6.36706 -0.276181 7.93281 -0.276178 8.24551 0.828483L9.22514 4.28927C9.33283 4.6697 9.63016 4.96703 10.0106 5.07472L13.4714 6.05436C14.576 6.36705 14.576 7.9328 13.4714 8.24549L10.0106 9.22513C9.63016 9.33281 9.33283 9.63014 9.22514 10.0106L8.24551 13.4714C7.93281 14.576 6.36706 14.576 6.05437 13.4714L5.07474 10.0106C4.96705 9.63014 4.66972 9.33281 4.28929 9.22513L0.828496 8.24549C-0.276165 7.9328 -0.276163 6.36705 0.828498 6.05435L4.28929 5.07472C4.66972 4.96703 4.96705 4.6697 5.07474 4.28927L6.05437 0.82848Z" fill="#B9FD50"/>
</svg>
